Coordinates
version=1
nRows=5
nColumns=63
inDegrees=yes

Units are S.I. units (second, meters, Newtons, ...)
If the header above contains a line with 'inDegrees', this indicates whether rotational values are in degrees (yes) or radians (no).

endheader
time	pelvis_tilt	pelvis_list	pelvis_rotation	pelvis_tx	pelvis_ty	pelvis_tz	hip_flexion_r	hip_adduction_r	hip_rotation_r	knee_angle_r	knee_angle_r_beta	ankle_angle_r	subtalar_angle_r	mtp_angle_r	hip_flexion_l	hip_adduction_l	hip_rotation_l	knee_angle_l	knee_angle_l_beta	ankle_angle_l	subtalar_angle_l	mtp_angle_l	L5_S1_Flex_Ext	L5_S1_Lat_Bending	L5_S1_axial_rotation	L4_L5_Flex_Ext	L4_L5_Lat_Bending	L4_L5_axial_rotation	L3_L4_Flex_Ext	L3_L4_Lat_Bending	L3_L4_axial_rotation	L2_L3_Flex_Ext	L2_L3_Lat_Bending	L2_L3_axial_rotation	L1_L2_Flex_Ext	L1_L2_Lat_Bending	L1_L2_axial_rotation	L1_T12_Flex_Ext	L1_T12_Lat_Bending	L1_T12_axial_rotation	Abs_r3	Abs_r2	Abs_r1	Abs_t1	Abs_t2	neck_flexion	neck_bending	neck_rotation	arm_flex_r	arm_add_r	arm_rot_r	elbow_flex_r	pro_sup_r	wrist_flex_r	wrist_dev_r	arm_flex_l	arm_add_l	arm_rot_l	elbow_flex_l	pro_sup_l	wrist_flex_l	wrist_dev_l
     11.24200000	    -53.64790031	     -0.99536018	     -4.68112393	     -0.25028353	      1.01974230	      0.01988371	    125.56587844	     -2.03925102	      0.25123792	    118.01476576	      2.05974623	     16.76279952	     -3.92744812	      0.00000000	     87.13067133	     -9.46627874	      0.56148862	     49.21301952	      0.85892923	      5.10506630	      5.07098223	      0.00000000	     -0.07644986	      0.29898586	      0.78563182	     -0.14197503	      0.39765120	      0.83473380	     -0.12559947	      0.72695422	      0.83473380	     -0.08737454	      0.72695422	      0.68742784	     -0.07099134	      0.60969197	      0.63832585	     -0.04368345	      0.46312910	      0.58922386	     -0.54607369	      3.38218786	      4.36944847	      0.00000000	      0.00000000	     -0.00000000	      0.00000000	      0.00000000	     77.30081339	    -12.27568522	     33.39172733	     26.24014226	     30.36956376	      0.00000000	      5.00000014	     70.76099196	    -17.75953651	     26.14640002	     35.81292301	     41.68771774	      0.00000000	      5.00000014
     11.25000000	    -53.74588954	     -1.30886870	     -4.72601012	     -0.25072371	      1.02009530	      0.01989829	    126.32023087	     -2.02414460	     -0.19277434	    116.81027584	      2.03872391	     16.62076762	     -4.68004903	      0.00000000	     87.21634950	     -9.72680286	      0.52857439	     50.74550132	      0.88567608	      4.70249381	      4.72989622	      0.00000000	     -0.07609822	      0.34236821	      0.77714298	     -0.14132201	      0.45534972	      0.82571442	     -0.12502177	      0.83243406	      0.82571442	     -0.08697266	      0.83243406	      0.68000011	     -0.07066481	      0.69815725	      0.63142867	     -0.04348252	      0.53032835	      0.58285724	     -0.54356199	      3.87293763	      4.32223613	      0.00000000	      0.00000000	     -0.00000000	      0.00000000	      0.00000000	     77.57013916	    -12.16024934	     33.85670310	     26.05878117	     30.46130462	      0.00000000	      5.00000014	     70.68311657	    -17.84767288	     25.97905428	     35.85258375	     41.66928525	      0.00000000	      5.00000014
     11.25800000	    -53.81641534	     -1.44242654	     -4.48899158	     -0.25119703	      1.02032752	      0.01962757	    126.90095144	     -2.11472060	     -0.20092880	    115.38923414	      2.01392206	     16.74124094	     -4.75310503	      0.00000000	     87.44002704	     -9.68855419	      0.43494933	     52.60835223	      0.91818896	      4.48824587	      4.50921529	      0.00000000	     -0.07587771	      0.35831408	      0.72063647	     -0.14091249	      0.47655773	      0.76567625	     -0.12465949	      0.87120485	      0.76567625	     -0.08672063	      0.87120485	      0.63055691	     -0.07046004	      0.73067407	      0.58551713	     -0.04335652	      0.55502851	      0.54047735	     -0.54198688	      4.05332054	      4.00796385	      0.00000000	      0.00000000	     -0.00000000	      0.00000000	      0.00000000	     77.68939056	    -12.05625582	     33.92115884	     26.01589950	     30.50775092	      0.00000000	      5.00000014	     70.69713421	    -17.94673107	     25.92490244	     35.85721842	     41.67065450	      0.00000000	      5.00000014
     11.26700000	    -53.90132074	     -1.64165505	     -4.27666610	     -0.25175837	      1.02054959	      0.01933219	    127.22361679	     -2.20690148	     -0.29357716	    113.64096297	      1.98340897	     16.85270332	     -4.74288423	      0.00000000	     87.94575385	     -9.69924431	      0.43367716	     54.92392553	      0.95860334	      4.11569196	      4.16683011	      0.00000000	     -0.07542417	      0.38256061	      0.67147110	     -0.14007023	      0.50880561	      0.71343805	     -0.12391437	      0.93015787	      0.71343805	     -0.08620228	      0.93015787	      0.58753722	     -0.07003888	      0.78011760	      0.54557027	     -0.04309737	      0.59258639	      0.50360333	     -0.53874730	      4.32760214	      3.73452083	      0.00000000	      0.00000000	     -0.00000000	      0.00000000	      0.00000000	     77.81724968	    -11.96824507	     33.95022547	     25.94867916	     30.55433606	      0.00000000	      5.00000014	     70.70586571	    -18.03051403	     25.89591364	     35.91455766	     41.67719914	      0.00000000	      5.00000014
     11.27500000	    -54.03215048	     -2.24910014	     -4.36278043	     -0.25250699	      1.02095130	      0.01896915	    127.14993373	     -2.33140311	     -0.96095547	    111.41967687	      1.94464021	     17.03981883	     -4.65424466	      0.00000000	     88.82950729	     -9.96586472	      0.95807376	     57.65327972	      1.00623956	      3.13638466	      2.97318416	      0.00000000	     -0.07666516	      0.46356275	      0.68599814	     -0.14237486	      0.61653846	      0.72887302	     -0.12595319	      1.12710647	      0.72887302	     -0.08762061	      1.12710647	      0.60024837	     -0.07119126	      0.94529716	      0.55737349	     -0.04380647	      0.71805870	      0.51449860	     -0.54761154	      5.24391454	      3.81531583	      0.00000000	      0.00000000	     -0.00000000	      0.00000000	      0.00000000	     78.13361806	    -12.01186367	     34.17167593	     25.79289682	     30.61303280	      0.00000000	      5.00000014	     70.61788940	    -17.96569518	     25.74825069	     36.07951655	     41.66378754	      0.00000000	      5.00000014
